<svg width="14" height="20" viewBox="0 0 14 20" fill="#526070" xmlns="http://www.w3.org/2000/svg">
<path d="M4 20L2.65 15.45C1.85 14.8167 1.20833 14.025 0.725 13.075C0.241667 12.125 0 11.1 0 10C0 8.9 0.241667 7.875 0.725 6.925C1.20833 5.975 1.85 5.18333 2.65 4.55L4 0H10L11.35 4.55C12.15 5.18333 12.7917 5.975 13.275 6.925C13.7583 7.875 14 8.9 14 10C14 11.1 13.7583 12.125 13.275 13.075C12.7917 14.025 12.15 14.8167 11.35 15.45L10 20H4ZM7 15C8.38333 15 9.56267 14.5123 10.538 13.537C11.5127 12.5623 12 11.3833 12 10C12 8.61667 11.5127 7.43733 10.538 6.462C9.56267 5.48733 8.38333 5 7 5C5.61667 5 4.43767 5.48733 3.463 6.462C2.48767 7.43733 2 8.61667 2 10C2 11.3833 2.48767 12.5623 3.463 13.537C4.43767 14.5123 5.61667 15 7 15ZM5.1 3.25C5.43333 3.16667 5.754 3.1 6.062 3.05C6.37067 3 6.68333 2.975 7 2.975C7.31667 2.975 7.62933 3 7.938 3.05C8.246 3.1 8.56667 3.16667 8.9 3.25L8.5 2H5.5L5.1 3.25ZM5.5 18H8.5L8.9 16.75C8.56667 16.8333 8.246 16.896 7.938 16.938C7.62933 16.9793 7.31667 17 7 17C6.68333 17 6.37067 16.9793 6.062 16.938C5.754 16.896 5.43333 16.8333 5.1 16.75L5.5 18ZM5.5 18H5.1H8.9H8.5H5.5Z" fill="url(#paint0_linear_2378_13109)"/>
<defs>
<linearGradient id="paint0_linear_2378_13109" x1="0" y1="0" x2="18.5089" y2="5.93236" gradientUnits="userSpaceOnUse">
<stop stop-color="#526070"/>
<stop offset="1" stop-color="#526070"/>
</linearGradient>
</defs>
</svg>
